<svg version="1.1" id="Layer_1" xmlns="http://www.w3.org/2000/svg" xmlns:xlink="http://www.w3.org/1999/xlink" x="0px" y="0px"
	 width="100%" viewBox="0 0 1024 1024" enable-background="new 0 0 1024 1024" xml:space="preserve">
<path fill="#000000" opacity="1.000000" stroke="none" 
	d="
M571.756348,766.313110 
	C508.294159,766.341980 445.309357,766.344788 382.324585,766.342529 
	C374.777313,766.342285 374.786224,766.329529 374.785095,758.930237 
	C374.777985,711.774963 374.754456,664.619690 374.779785,617.464417 
	C374.781830,613.677612 374.621490,610.475098 369.533813,610.249634 
	C362.850067,609.953369 362.042786,610.488220 362.007355,617.272522 
	C361.796753,657.585144 361.579620,697.897888 361.437683,738.210815 
	C361.411285,745.701294 361.642578,753.195435 361.898865,760.682983 
	C362.042572,764.882019 360.469604,766.513794 356.049072,766.461304 
	C338.555786,766.253723 321.055969,766.218567 303.564301,766.490234 
	C298.547333,766.568115 297.514099,764.682251 297.524750,760.083435 
	C297.666656,698.765076 297.658478,637.446289 297.623962,576.127625 
	C297.620453,569.898315 298.603821,563.839111 300.373871,557.946045 
	C310.599121,523.902771 334.264862,504.825867 368.318085,497.729401 
	C380.793610,495.129547 393.552612,495.768494 406.183746,496.164337 
	C433.172333,497.010101 460.159149,496.393524 487.145477,496.569458 
	C514.471191,496.747620 541.798828,496.603638 569.125366,496.684631 
	C582.015198,496.722839 594.100281,500.208038 605.657898,505.721466 
	C606.405884,506.078278 607.128235,506.508942 607.805298,506.986389 
	C608.196106,507.261963 608.472107,507.700256 608.810181,508.076782 
	C609.075989,510.272034 607.288635,511.293732 606.237610,512.693298 
	C594.292419,528.599487 587.348938,546.306763 587.412598,566.366638 
	C587.441895,575.606323 590.950745,584.268066 592.814758,593.205017 
	C593.832825,598.086243 594.753784,603.010986 596.179077,607.778381 
	C598.162415,614.412170 595.558777,618.892456 590.099121,622.582886 
	C587.880188,620.539856 588.915161,617.889343 588.769287,615.589111 
	C588.404236,609.832886 584.056030,611.657532 580.917114,611.331665 
	C577.839050,611.012146 575.231323,611.408447 575.297974,615.606323 
	C575.419556,623.269165 575.238708,630.936829 575.368652,638.599365 
	C575.419678,641.609192 574.549316,644.007141 572.647827,646.351868 
	C569.190369,650.615356 565.773315,654.953796 562.800903,659.558777 
	C557.852539,667.224976 558.680786,674.238647 564.835388,680.923340 
	C565.173828,681.290955 565.469543,681.752625 565.888245,681.983521 
	C574.983826,687.000244 575.764526,695.095764 575.457275,704.485779 
	C574.847229,723.128357 575.287109,741.804504 575.211609,760.466431 
	C575.202209,762.785095 576.006958,765.779846 571.756348,766.313110 
z"/>
<path fill="#000000" opacity="1.000000" stroke="none" 
	d="
M376.703705,369.192383 
	C377.702118,359.804321 380.033356,351.818634 389.068695,347.363159 
	C392.354156,345.743042 391.538452,341.714417 391.497223,338.715576 
	C391.441498,334.666016 393.118591,333.639069 396.873840,333.644104 
	C449.685303,333.714752 502.496948,333.714081 555.308228,333.592255 
	C559.187683,333.583313 560.928589,334.966034 560.757690,338.670013 
	C560.525879,343.693268 561.983948,347.189056 566.860535,349.889008 
	C571.691589,352.563690 573.606384,357.991791 574.527466,363.388184 
	C577.221924,379.173553 573.450500,393.079651 562.170837,404.701050 
	C561.248596,405.651123 560.274963,406.811859 559.099548,407.212067 
	C552.830078,409.346710 551.064148,414.602478 548.893860,420.144897 
	C538.492554,446.707550 520.583557,465.716278 492.049500,472.156281 
	C459.534058,479.494843 427.823273,464.906006 410.743164,435.843445 
	C409.059418,432.978394 407.397095,430.052826 406.166412,426.978577 
	C402.675751,418.258514 398.764740,410.670898 390.443604,404.554413 
	C379.413422,396.446564 376.241058,383.306091 376.703705,369.192383 
z"/>
<path fill="#000000" opacity="1.000000" stroke="none" 
	d="
M623.770081,504.770203 
	C637.918579,491.377502 654.065247,482.724335 673.025208,479.330933 
	C708.207092,473.034149 742.793579,497.586182 748.314148,533.048462 
	C752.569214,560.381897 743.757874,583.872925 726.886169,604.929932 
	C715.312378,619.374756 700.835876,629.504211 682.963623,634.717896 
	C678.935913,635.892822 676.003479,635.360413 672.564819,632.548462 
	C649.746338,613.889221 627.001099,595.109924 603.519714,577.309265 
	C595.694153,571.376892 594.841675,564.906433 596.076172,556.603516 
	C599.118896,536.139038 609.482849,519.618042 623.770081,504.770203 
z"/>
<path fill="#000000" opacity="1.000000" stroke="none" 
	d="
M653.151978,694.000000 
	C653.164062,716.330322 653.044006,738.162109 653.284729,759.989868 
	C653.340271,765.029541 651.795715,766.587158 646.728699,766.503052 
	C629.569214,766.218018 612.399841,766.248169 595.239075,766.492371 
	C590.374084,766.561584 588.511230,765.354248 588.585999,760.108093 
	C588.866211,740.448242 588.722107,720.781555 588.637817,701.117920 
	C588.622375,697.533691 588.790100,694.840942 593.409119,694.035339 
	C597.279724,693.360291 599.740723,689.933228 602.109619,686.877380 
	C611.703308,674.501587 621.556641,662.314209 630.750793,649.648376 
	C634.132446,644.989685 637.751648,643.405212 643.262207,643.627136 
	C653.155396,644.025818 653.163025,643.762512 653.159058,653.505188 
	C653.153687,666.836792 653.153442,680.168396 653.151978,694.000000 
z"/>
<path fill="#000000" opacity="1.000000" stroke="none" 
	d="
M460.000000,306.012970 
	C439.093475,305.826385 418.671753,306.357941 397.700653,305.473053 
	C399.646698,297.602631 402.935455,291.310852 406.993713,285.465759 
	C420.511871,265.995667 439.757599,256.451599 462.826752,253.656387 
	C480.145782,251.557877 497.066132,253.008728 513.270874,259.740204 
	C532.556824,267.751648 545.888184,281.721375 553.617615,301.083801 
	C554.167480,302.461151 554.908569,303.817291 553.920471,306.012970 
	C522.962952,306.012970 491.731476,306.012970 460.000000,306.012970 
z"/>
<path fill="#000000" opacity="1.000000" stroke="none" 
	d="
M659.215942,632.620972 
	C659.921082,633.341248 660.408081,633.804138 660.786682,634.343140 
	C660.950256,634.576050 660.890015,634.966003 660.984009,635.688782 
	C656.324951,636.974182 651.435242,636.732361 646.882202,636.057617 
	C635.574585,634.381958 627.897949,638.206848 621.515869,647.894104 
	C613.749084,659.683350 604.419983,670.441772 595.794189,681.667175 
	C590.822998,688.136536 587.600891,688.666260 581.225647,683.768188 
	C578.056458,681.333374 575.023804,678.719849 571.947327,676.165527 
	C566.435120,671.588806 566.009155,667.756287 570.506226,662.065613 
	C580.937256,648.865845 591.289001,635.599915 601.944519,622.583069 
	C605.328491,618.449158 606.448425,614.366882 605.115173,609.241150 
	C603.567505,603.291443 602.420105,597.237732 601.091614,591.230835 
	C600.810669,589.960449 600.227600,588.689758 601.713745,586.739563 
	C620.812622,601.972900 639.883179,617.183655 659.215942,632.620972 
z"/>
</svg>