<svg version="1.1" id="Layer_1" xmlns="http://www.w3.org/2000/svg" xmlns:xlink="http://www.w3.org/1999/xlink" x="0px" y="0px"
	 width="100%" viewBox="0 0 1024 1024" enable-background="new 0 0 1024 1024" xml:space="preserve">
<path fill="#000000" opacity="1.000000" stroke="none" 
	d="
M578.693115,771.416870 
	C509.424042,771.417175 440.617462,771.418762 371.810913,771.417847 
	C364.702576,771.417786 364.658203,771.410828 364.655334,764.321960 
	C364.644562,737.499146 364.666718,710.676331 364.673035,683.853516 
	C364.675140,674.983643 364.528625,674.847839 355.918182,671.933472 
	C336.687286,665.424438 317.512634,658.745239 298.219391,652.427490 
	C293.375366,650.841248 291.313385,648.606201 291.588104,643.210815 
	C293.212708,611.304932 301.302765,581.830505 322.726227,557.130371 
	C335.751465,542.112976 352.437866,532.643982 370.774078,525.840393 
	C378.096313,523.123596 385.731934,521.261902 393.116730,518.699280 
	C397.381622,517.219238 399.374878,518.517029 400.899536,522.634766 
	C408.586365,543.395081 416.500610,564.071228 424.347443,584.772217 
	C425.291382,587.262390 426.188385,589.781494 427.320709,592.186646 
	C429.569458,596.963013 432.649323,597.635803 436.833740,594.303467 
	C443.087433,589.323242 449.369202,584.372681 455.481110,579.222168 
	C458.434418,576.733459 460.823151,576.350220 463.473389,579.556641 
	C464.947357,581.339905 466.800171,582.820190 468.541168,584.370850 
	C474.714478,589.869202 478.042053,589.781616 483.966553,584.020630 
	C492.128143,576.084290 492.118835,576.095886 501.003845,583.229431 
	C505.550293,586.879639 510.096191,590.532654 514.716553,594.087952 
	C519.877380,598.059143 522.998840,597.314270 525.358398,591.138245 
	C531.537659,574.964539 537.484375,558.701965 543.545532,542.482971 
	C546.167725,535.466309 548.941223,528.504395 551.447876,521.447205 
	C552.496338,518.495605 553.950623,517.669983 557.053284,518.559265 
	C568.273499,521.775024 579.266724,525.564636 589.921692,530.350220 
	C593.604797,532.004456 594.700317,533.921631 592.915710,538.057373 
	C584.862549,556.720764 584.629150,575.783997 590.603699,595.118652 
	C592.515320,601.304993 593.572205,607.752380 595.397095,613.969666 
	C596.514038,617.775391 595.528870,620.528015 593.141785,623.504517 
	C583.140930,635.974426 573.322083,648.590698 563.479126,661.186707 
	C556.135620,670.584045 556.681396,678.558167 565.336060,686.736572 
	C570.796509,691.896545 576.465515,696.845825 583.895691,699.050110 
	C586.437134,699.804016 587.195740,701.554688 587.196899,703.953918 
	C587.206848,725.112061 587.242554,746.270264 587.243408,767.428406 
	C587.243713,774.143555 582.063416,770.512939 578.693115,771.416870 
z"/>
<path fill="#000000" opacity="1.000000" stroke="none" 
	d="
M510.001312,545.000244 
	C499.631317,555.391907 489.419586,565.444580 479.449127,575.731079 
	C476.604370,578.665955 474.635834,578.289917 472.071747,575.623169 
	C453.596039,556.407593 435.052246,537.257385 416.562897,518.054932 
	C415.460449,516.909912 414.053040,515.795227 414.361603,513.522827 
	C417.341248,512.273682 420.649811,512.167725 423.872131,511.661469 
	C430.204987,510.666443 435.850464,500.106232 433.160034,494.263458 
	C432.213745,492.208313 430.292755,491.636261 428.240479,491.365601 
	C426.016479,491.072296 425.433228,492.468231 425.021454,494.276581 
	C424.298920,497.449890 421.978394,498.454834 418.998383,498.274597 
	C404.666748,497.407898 390.493835,495.740356 377.064514,490.161316 
	C369.552338,487.040497 364.453430,481.708130 361.646393,474.080383 
	C356.555756,460.247375 355.115204,445.896973 355.949585,431.325684 
	C357.577484,402.896393 363.715240,375.389099 373.508820,348.671844 
	C377.144897,338.752502 377.100739,338.723999 387.553162,338.721985 
	C447.209503,338.710419 506.866058,338.765961 566.521912,338.588867 
	C571.589478,338.573822 574.281616,339.960480 576.229309,344.832825 
	C585.805725,368.789185 591.944641,393.518799 594.444092,419.200378 
	C595.852844,433.674469 596.070190,448.039368 593.551270,462.449310 
	C590.649109,479.051880 582.117859,489.956451 565.061035,493.784729 
	C554.293945,496.201324 543.523254,498.004700 532.501160,498.316467 
	C529.551636,498.399872 527.183533,497.687469 526.622437,494.296814 
	C526.258972,492.100189 524.968750,491.089813 522.757507,491.435272 
	C520.634094,491.766968 519.072998,492.757629 518.484863,495.034027 
	C516.504089,502.700378 521.500549,510.467010 529.231506,511.730988 
	C532.121643,512.203491 535.096375,512.443542 538.666931,514.144348 
	C529.522827,525.232849 519.856384,534.963989 510.001312,545.000244 
z"/>
<path fill="#000000" opacity="1.000000" stroke="none" 
	d="
M656.696289,624.324768 
	C638.202942,609.001770 619.821960,594.077209 600.659851,580.221252 
	C593.614380,575.126709 593.872803,569.233032 594.770935,562.341431 
	C599.626160,525.085266 636.985840,482.114136 684.880188,482.799591 
	C716.054504,483.245758 742.755127,508.354523 747.500244,539.147888 
	C753.538757,578.334473 723.398193,627.789734 682.326843,638.884460 
	C677.583801,640.165710 674.181335,639.648438 670.647766,636.232544 
	C666.345093,632.073181 661.557678,628.415161 656.696289,624.324768 
z"/>
<path fill="#000000" opacity="1.000000" stroke="none" 
	d="
M511.539764,258.242950 
	C537.872131,266.096924 555.056885,282.934509 564.289734,308.018402 
	C562.605225,310.444061 560.443237,309.942993 558.552124,309.945404 
	C503.439148,310.015900 448.326141,310.057098 393.213104,310.060455 
	C387.370361,310.060791 386.895203,309.187866 389.226288,303.493408 
	C401.184387,274.281830 424.034210,259.258301 454.283020,254.889008 
	C473.315674,252.139847 492.451874,252.616669 511.539764,258.242950 
z"/>
<path fill="#000000" opacity="1.000000" stroke="none" 
	d="
M292.898254,660.433533 
	C305.540924,663.434937 317.251465,668.233215 329.240692,672.188477 
	C336.348175,674.533325 343.343811,677.222900 350.478058,679.478088 
	C353.856567,680.546082 355.290283,682.322937 355.281219,685.928528 
	C355.213409,712.902344 355.239960,739.876709 355.366730,766.850342 
	C355.382660,770.231262 354.468201,771.513794 350.862183,771.480042 
	C332.880981,771.311340 314.897247,771.353149 296.914856,771.426575 
	C293.576447,771.440247 291.615692,770.750732 291.626221,766.783142 
	C291.717163,732.483032 291.677765,698.182495 291.689331,663.882141 
	C291.689728,662.730286 291.623993,661.529541 292.898254,660.433533 
z"/>
<path fill="#000000" opacity="1.000000" stroke="none" 
	d="
M652.133911,771.474609 
	C635.041504,771.445129 618.380859,771.297974 601.724182,771.487976 
	C597.317810,771.538269 595.912231,769.978516 595.937073,765.714600 
	C596.060425,744.559021 595.992615,723.402283 595.960449,702.245911 
	C595.954346,698.234436 597.258118,695.121643 600.181824,692.068481 
	C604.297058,687.771118 607.651367,682.721191 611.127258,677.847778 
	C612.449829,675.993469 613.906128,674.668152 616.054321,673.918579 
	C627.683044,669.860596 639.281067,665.714539 650.907898,661.651062 
	C655.866638,659.918030 656.282532,660.207214 656.286682,665.609314 
	C656.312500,699.260925 656.296265,732.912598 656.304077,766.564209 
	C656.304688,769.179077 656.417053,771.820374 652.133911,771.474609 
z"/>
<path fill="#000000" opacity="1.000000" stroke="none" 
	d="
M636.215271,619.755981 
	C643.932800,626.127563 651.368835,632.283020 658.781677,638.466309 
	C658.963501,638.617981 658.886658,639.079651 659.057007,640.312683 
	C652.577209,640.312683 646.147949,640.824097 639.836365,640.180664 
	C632.276794,639.410034 627.552612,642.329224 623.232849,648.400269 
	C613.971436,661.416382 604.012817,673.937988 594.284241,686.619629 
	C590.023010,692.174377 586.324036,692.748718 580.652832,688.601624 
	C577.029541,685.952087 573.497498,683.132080 570.208496,680.082275 
	C565.478943,675.696594 565.393311,672.068848 569.397888,667.017151 
	C580.052673,653.576538 590.585327,640.036560 601.415039,626.738525 
	C604.590942,622.838867 605.344299,618.942810 604.177795,614.254517 
	C602.813293,608.770752 601.695923,603.225403 600.473511,597.706299 
	C600.121582,596.116943 599.275696,594.548157 600.649536,592.172546 
	C612.842651,600.854126 624.357910,610.237366 636.215271,619.755981 
z"/>
<path fill="#000000" opacity="1.000000" stroke="none" 
	d="
M637.152100,657.302612 
	C633.207336,658.630188 629.638794,659.851074 625.844604,661.149109 
	C628.289795,649.849426 643.780396,643.913879 656.610352,650.044983 
	C649.661194,652.649170 643.594727,654.922546 637.152100,657.302612 
z"/>
</svg>